<svg width="18" height="18" viewBox="0 0 18 18" fill="none" xmlns="http://www.w3.org/2000/svg">
<path d="M9 18C13.9706 18 18 13.9706 18 9C18 4.02944 13.9706 0 9 0C4.02944 0 0 4.02944 0 9C0 13.9706 4.02944 18 9 18Z" fill="#F0F0F0"/>
<path d="M8.60876 9.00003H18C18 8.18771 17.8918 7.40077 17.69 6.65219H8.60876V9.00003ZM8.60876 4.30438H16.6791C16.1287 3.40691 15.426 2.61237 14.6024 1.95654H8.60876V4.30438ZM9.00005 18C11.1182 18 13.065 17.2679 14.6024 16.0435H3.39769C4.93507 17.2679 6.88192 18 9.00005 18ZM1.32101 13.6957H16.6791C17.1267 12.9655 17.4672 12.1748 17.69 11.3478H0.310089C0.532941 12.1748 0.873388 12.9655 1.32101 13.6957Z" fill="#D80027"/>
<path d="M4.16897 1.40548H4.98913L4.22624 1.95971L4.51765 2.85652L3.75479 2.30228L2.99194 2.85652L3.24366 2.08178C2.57072 2.64237 1.98273 3.29768 1.49808 4.02722H1.76087L1.27526 4.38001C1.19953 4.50639 1.12692 4.6346 1.0575 4.76455L1.28939 5.47826L0.856758 5.16393C0.748785 5.39253 0.650587 5.62563 0.56243 5.86259L0.81791 6.64896H1.76087L0.99798 7.2032L1.28939 8.1L0.526535 7.54576L0.0695742 7.87778C0.0232393 8.25006 3.40255e-06 8.62485 0 9H9V0C7.22208 0 5.56471 0.515742 4.16897 1.40548ZM4.51765 8.1L3.75479 7.54576L2.99194 8.1L3.28335 7.2032L2.52046 6.64896H3.46342L3.75479 5.75216L4.04617 6.64896H4.98913L4.22624 7.2032L4.51765 8.1ZM4.22624 4.58146L4.51765 5.47826L3.75479 4.92402L2.99194 5.47826L3.28335 4.58146L2.52046 4.02722H3.46342L3.75479 3.13042L4.04617 4.02722H4.98913L4.22624 4.58146ZM7.74591 8.1L6.98305 7.54576L6.22019 8.1L6.51161 7.2032L5.74871 6.64896H6.69168L6.98305 5.75216L7.27443 6.64896H8.21739L7.4545 7.2032L7.74591 8.1ZM7.4545 4.58146L7.74591 5.47826L6.98305 4.92402L6.22019 5.47826L6.51161 4.58146L5.74871 4.02722H6.69168L6.98305 3.13042L7.27443 4.02722H8.21739L7.4545 4.58146ZM7.4545 1.95971L7.74591 2.85652L6.98305 2.30228L6.22019 2.85652L6.51161 1.95971L5.74871 1.40548H6.69168L6.98305 0.508676L7.27443 1.40548H8.21739L7.4545 1.95971Z" fill="#0052B4"/>
</svg>
