<svg width="18" height="18" viewBox="0 0 18 18" fill="none" xmlns="http://www.w3.org/2000/svg">
<path d="M0.559814 12.1302C1.83145 15.5574 5.13034 17.9998 9.00002 17.9998C12.8697 17.9998 16.1686 15.5574 17.4402 12.1302L9.00002 11.3477L0.559814 12.1302Z" fill="#FFDA44"/>
<path d="M9.00002 0C5.13034 0 1.83145 2.44237 0.559814 5.86958L9.00002 6.65216L17.4402 5.86955C16.1686 2.44237 12.8697 0 9.00002 0Z" fill="black"/>
<path d="M0.559793 5.86963C0.198035 6.84462 0 7.89916 0 9.00005C0 10.1009 0.198035 11.1555 0.559793 12.1305H17.4402C17.802 11.1555 18 10.1009 18 9.00005C18 7.89916 17.802 6.84462 17.4402 5.86963H0.559793Z" fill="#D80027"/>
</svg>
