<svg width="25" height="25" viewBox="0 0 25 25" fill="none" xmlns="http://www.w3.org/2000/svg">
<path id="info" fill-rule="evenodd" clip-rule="evenodd" d="M25 12.5C25 19.4036 19.4036 25 12.5 25C5.59644 25 0 19.4036 0 12.5C0 5.59644 5.59644 0 12.5 0C19.4036 0 25 5.59644 25 12.5ZM12.5 19.6875C13.0178 19.6875 13.4375 19.2678 13.4375 18.75V11.25C13.4375 10.7322 13.0178 10.3125 12.5 10.3125C11.9822 10.3125 11.5625 10.7322 11.5625 11.25V18.75C11.5625 19.2678 11.9822 19.6875 12.5 19.6875ZM12.5 6.25C13.1904 6.25 13.75 6.80964 13.75 7.5C13.75 8.19036 13.1904 8.75 12.5 8.75C11.8096 8.75 11.25 8.19036 11.25 7.5C11.25 6.80964 11.8096 6.25 12.5 6.25Z" fill="#2A3DB6"/>
</svg>
